<svg width="130" height="58" viewBox="0 0 130 58" fill="none" xmlns="http://www.w3.org/2000/svg">
<path d="M40.74 38.64C40.74 39.568 40.404 40.368 39.732 41.04C39.092 41.68 38.308 42 37.38 42H23.94C23.012 42 22.212 41.68 21.54 41.04C20.9 40.368 20.58 39.568 20.58 38.64V21.84C20.58 20.912 20.9 20.128 21.54 19.488C22.212 18.816 23.012 18.48 23.94 18.48H37.38C38.308 18.48 39.092 18.816 39.732 19.488C40.404 20.128 40.74 20.912 40.74 21.84V38.64ZM36.9 38.64V21.84H24.42V38.64H36.9ZM65.6925 38.64C65.6925 39.568 65.3565 40.368 64.6845 41.04C64.0445 41.68 63.2605 42 62.3325 42H48.8925C47.9645 42 47.1645 41.68 46.4925 41.04C45.8525 40.368 45.5325 39.568 45.5325 38.64V21.84C45.5325 20.912 45.8525 20.128 46.4925 19.488C47.1645 18.816 47.9645 18.48 48.8925 18.48H62.3325C63.2605 18.48 64.0445 18.816 64.6845 19.488C65.3565 20.128 65.6925 20.912 65.6925 21.84V38.64ZM61.8525 38.64V21.84H49.3725V38.64H61.8525ZM86.325 21.84H79.365V42H75.525V21.84H68.565V18.48H86.325V21.84ZM109.359 38.64C109.359 39.568 109.023 40.368 108.351 41.04C107.711 41.68 106.927 42 105.999 42H92.5594C91.6314 42 90.8314 41.68 90.1594 41.04C89.5194 40.368 89.1994 39.568 89.1994 38.64V21.84C89.1994 20.912 89.5194 20.128 90.1594 19.488C90.8314 18.816 91.6314 18.48 92.5594 18.48H105.999C106.927 18.48 107.711 18.816 108.351 19.488C109.023 20.128 109.359 20.912 109.359 21.84V38.64ZM105.519 38.64V21.84H93.0394V38.64H105.519Z" fill="#184913"/>
</svg>
